PathFileType	4	(X/Y/Z)	KinectSkeleton.trc																																																	
DataRate	CameraRate	NumFrames	NumMarkers	Units	OrigDataRate	OrigDataStartFrame	OrigNumFrames																																													
60	60	22	17	mm	60	33	300																																													
Frame#	Time	Neck			ShoulderMid			R.Shoulder			L.Shoulder			R.Elbow			L.Elbow			R.Wrist			L.Wrist			HipCenter			R.Hip			L.Hip			R.Knee			L.Knee			R.Ankle			L.Ankle			R.Foot			L.Foot		
		X1	Y1	Z1	X2	Y2	Z2	X3	Y3	Z3	X4	Y4	Z4	X5	Y5	Z5	X6	Y6	Z6	X7	Y7	Z7	X8	Y8	Z8	X9	Y9	Z9	X10	Y10	Z10	X11	Y11	Z11	X12	Y12	Z12	X13	Y13	Z13	X14	Y14	Z14	X15	Y15	Z15	X16	Y16	Z16	X17	Y17	Z17
																																																				
33	2.143	-1225.631	1492.477	542.588	-1225.631	1492.477	542.588	-1223.073	1443.697	717.563	-1223.711	1425.334	363.207	-1239.34	1422.005	1011.829	-1172.505	1447.228	78.578	-1131.888	1470.17	1228.388	-1025.621	1520.85	-101.029	-1328.874	939.4	588.332	-1329.759	946.698	674.312	-1327.892	931.307	492.983	-1255.441	554.027	802.527	-1250.529	541.363	357.003	-1333.342	159.373	855.673	-1331.227	152.912	295.125	-1258.973	-5.397	862.271	-1231.537	-15.742	278.528
34	2.203	-1238.861	1360.26	544.227	-1238.861	1360.26	544.227	-1235.56	1297.233	710.635	-1237.129	1276.708	374.795	-1249.087	1199.065	979.413	-1203.93	1206.91	104.483	-1111.413	1227.398	1172.655	-1030.13	1242.612	-51.079	-1320.429	821.137	582.883	-1322.488	827.222	666.288	-1318.146	814.389	490.39	-1252.376	445.725	789.068	-1226.941	434.512	375.228	-1346.649	63.931	797.003	-1355.302	67.28	361.934	-1276.902	-93.45	830.422	-1294.351	-110.697	331.344
35	2.265	-1233.457	1229.94	546.623	-1233.457	1229.94	546.623	-1245.024	1165.378	710.802	-1248.797	1153.893	376.983	-1274.253	988.059	929.441	-1232.475	986.707	155.771	-1167.888	867.615	1102.396	-1051.662	925.185	22.088	-1328.366	698.336	576.018	-1331.453	703.011	658.473	-1324.943	693.152	484.578	-1172.933	341.813	735.799	-1146.281	341.58	404.592	-1380.601	16.001	777.487	-1367.299	27.82	380.21	-1265.95	-104.205	826.685	-1239.895	-105.888	343.491
36	2.341	-1240.375	1222.286	544.976	-1240.375	1222.286	544.976	-1252.854	1153.861	708.597	-1253.093	1143.282	375.454	-1276.821	944.756	898.973	-1252.28	933.843	191.841	-1178.105	782.876	1040.718	-1100.246	789.886	87.862	-1331.049	688.475	575.265	-1334.198	693.431	657.93	-1327.557	682.979	483.592	-1168.854	337.95	751.527	-1140.78	335.883	397.252	-1378.854	11.027	781.077	-1364.951	22.544	380.725	-1261.21	-104.573	835.642	-1236.877	-109.494	338.1
37	2.403	-1237.435	1232.755	528.972	-1237.435	1232.755	528.972	-1254.327	1177.959	696.516	-1257.582	1153.104	360.158	-1331.938	918.378	784.126	-1333.635	886.811	322.713	-1303.334	688.581	836.969	-1278.157	659.01	329.37	-1329.107	699.601	569.019	-1328.473	705.408	651.964	-1329.81	693.161	477.036	-1185.271	345.062	766.842	-1160.561	334.053	397.655	-1379.801	6.115	778.76	-1382.165	17.494	378.031	-1263.303	-109.5	837.448	-1259.339	-123.884	349.424
38	2.448	-1241.049	1257.323	525.327	-1241.049	1257.323	525.327	-1247.106	1188.47	695.278	-1256.282	1156.695	358.945	-1334.349	924.519	785.522	-1342.37	884.671	329.371	-1263.722	695.058	827.939	-1254.362	660.845	340.299	-1333.763	708.865	565.913	-1336.196	714.557	651.037	-1331.064	702.554	471.513	-1181.769	348.586	771.593	-1161.583	334.914	377.679	-1391.256	6.376	779.733	-1386.523	7.69	370.621	-1253.056	-92.19	836.27	-1229.2	-101.624	337.223
39	2.511	-1243.568	1296.828	519.393	-1243.568	1296.828	519.393	-1243.148	1230.372	691.511	-1260.991	1196.684	351.988	-1343.482	963.146	762.47	-1356.376	925.952	321.416	-1270.965	730.026	786.794	-1256.946	705.052	325.534	-1326.616	743.718	567.645	-1331.786	751.144	653.057	-1320.883	735.483	472.927	-1207.361	367.136	760.587	-1195.642	348.477	375.853	-1398.274	11.699	778.579	-1388.448	-1.419	364.575	-1260.273	-90.805	832.116	-1221.403	-99.007	335.099
40	2.573	-1245.736	1340.231	521.229	-1245.736	1340.231	521.229	-1242.13	1269.892	691.725	-1262.699	1258.376	346.071	-1331.526	998.654	763.047	-1351.356	990.181	285.474	-1265.666	762.929	782.732	-1239.152	775.317	279.417	-1328.241	786.495	564.289	-1332.137	794.184	649.813	-1323.92	777.969	469.445	-1250.961	394.483	741.642	-1240.491	375.839	388.873	-1401.045	21.29	781.233	-1391.45	6.478	361.215	-1265.749	-87.365	829.794	-1227.152	-97.701	338.632
41	2.646	-1254.451	1367.593	516.186	-1254.451	1367.593	516.186	-1250.388	1296.685	686.377	-1269.26	1283.38	342.036	-1331.18	1025.89	767.124	-1350.027	1015.62	271.463	-1254.452	793.54	782.243	-1232.024	804.235	272.232	-1321.168	813.276	563.999	-1322.065	821.406	649.432	-1320.173	804.261	469.257	-1289.299	414.608	737.053	-1293.763	392.47	403.36	-1403.349	30.204	782.661	-1396.592	8.588	364.1	-1271.171	-83.003	828.274	-1232.554	-94.335	336.978
42	2.693	-1262.876	1379.484	517.72	-1262.876	1379.484	517.72	-1254.361	1305.184	686.379	-1280.74	1293.799	344.441	-1336.465	1036.75	772.165	-1354.732	1025.214	271.131	-1241.645	811.171	780.691	-1231.146	817.469	265.805	-1309.201	823.853	562.407	-1308.071	831.353	647.785	-1310.453	815.536	467.726	-1324.531	421.914	724.473	-1329.508	402.181	413.484	-1409.555	31.616	778.12	-1403.213	12.931	367.365	-1275.626	-78.538	825.172	-1237.359	-87.352	343.385
43	2.737	-1269.173	1380.595	521.347	-1269.173	1380.595	521.347	-1258.702	1307.703	690.197	-1280.725	1297.504	346.388	-1335.212	1035.937	770.99	-1353.488	1028.773	271.863	-1243.523	808.986	780.543	-1230.281	820.656	267.191	-1308.966	824.209	565.915	-1309.285	832.32	651.283	-1308.612	815.215	471.244	-1339.707	422.406	721.99	-1345.274	402.728	417.952	-1410.714	29.435	777.873	-1410.868	11.861	371.656	-1275.9	-79.532	825.477	-1243.592	-85.255	344.039
44	2.785	-1272.606	1377.962	525.315	-1272.606	1377.962	525.315	-1264.228	1308.164	694.561	-1278.41	1299.501	349.238	-1336.022	1033.949	768.087	-1350.372	1032.126	272.221	-1244.504	807.712	778.604	-1239.076	818.167	267.652	-1309.378	822.683	566.191	-1308.446	829.749	651.406	-1310.412	814.848	471.69	-1344.266	421.355	721.485	-1348.766	403.481	420.128	-1411.257	29.081	779.041	-1414.358	13.566	375.462	-1274.655	-77.848	824.21	-1249.754	-86.703	346.952
45	2.832	-1279.465	1373.429	527.331	-1279.465	1373.429	527.331	-1269.824	1302.189	695.18	-1283.451	1292.539	352.819	-1334.048	1026.984	766.363	-1345.213	1020.154	291.2	-1246.702	800.512	779.62	-1250.994	799.72	278.612	-1305.79	820.066	569.946	-1307.635	827.957	654.66	-1303.744	811.314	476.001	-1339.031	421.006	723.367	-1343.573	402.523	421.339	-1413.292	31.582	777.762	-1411.069	15.111	374.818	-1278.218	-77.74	818.118	-1247.913	-85.836	346.782
46	2.878	-1282.863	1375.42	529.819	-1282.863	1375.42	529.819	-1272.423	1303.697	697.538	-1287.256	1292.174	355.768	-1334.317	1027.338	767.232	-1344.688	1017.259	300.485	-1247.566	800.234	776.463	-1251.822	796.204	285.403	-1305.039	820.795	567.431	-1305.321	827.476	652.336	-1304.727	813.385	473.275	-1337.897	420.517	722.386	-1342.654	403.833	420.526	-1412.498	30.913	777.322	-1410.605	15.941	376.077	-1278.561	-79.385	819.393	-1249.577	-88.319	346.843
47	2.925	-1284.707	1373.433	532.628	-1284.707	1373.433	532.628	-1275.547	1299.958	699.234	-1287.589	1292.682	357.836	-1335.535	1023.301	766.911	-1346.361	1018.519	303.232	-1245.239	798.299	779.892	-1255.761	796.983	289.213	-1305.117	819.743	568.337	-1304.88	826.605	653.054	-1305.38	812.133	474.389	-1338.368	420.517	722.767	-1343.341	403.511	421.06	-1412.83	31.822	778.411	-1409.717	16.241	375.977	-1279.327	-79.359	817.925	-1248.412	-86.977	347.18
48	3	-1293.47	1375.656	533.768	-1293.47	1375.656	533.768	-1279.736	1300.878	700.181	-1297.154	1293.696	359.019	-1336.639	1023.686	770.935	-1349.493	1015.696	315.133	-1242.433	799.694	783.264	-1260.636	792.712	304.611	-1298.687	820.317	567.847	-1296.983	826.544	652.778	-1300.576	813.412	473.662	-1338.037	420.142	721.842	-1341.895	404.124	421.089	-1411.899	30.591	778.422	-1411.657	16.568	376.171	-1277.726	-80.079	818.806	-1250.446	-88.648	351.611
49	3.061	-1296.299	1376.118	536.151	-1296.299	1376.118	536.151	-1281.28	1301.64	702.829	-1301.811	1293.106	361.563	-1334.788	1022.822	771.364	-1360.949	1016.298	316.382	-1241.653	798.224	786.653	-1258.202	798.837	310.787	-1298.887	819.985	567.914	-1298.208	825.621	653.011	-1299.64	813.735	473.544	-1337.58	418.507	722.075	-1342.251	404.017	421.114	-1412.484	28.396	777.074	-1413.836	16.342	375.571	-1277.107	-79.517	821.702	-1252.866	-89.589	350.524
50	3.107	-1297.162	1377.228	536.872	-1297.162	1377.228	536.872	-1281.055	1301.663	703.237	-1302.084	1292.071	362.75	-1336.042	1022.833	771.533	-1360.552	1014.981	316.995	-1241.638	798.494	785.869	-1255.381	798.489	310.742	-1298.567	820.536	566.832	-1297.02	825.778	652.01	-1300.282	814.722	472.373	-1338.569	418.241	719.247	-1342.232	404.532	420.514	-1410.326	27.207	774.189	-1413.751	16.392	376.106	-1275.34	-80.177	821.743	-1252.365	-89.055	350.513
51	3.153	-1298.059	1377.558	537.085	-1298.059	1377.558	537.085	-1281.043	1302.371	703.514	-1302.276	1292.719	362.816	-1334.012	1023.068	771.677	-1358.734	1015.202	316.827	-1242.611	797.474	786.46	-1252.856	798.995	311.146	-1299.283	820.693	566.622	-1297.843	825.802	651.824	-1300.88	815.027	472.136	-1338.806	418.179	719.319	-1341.358	404.61	420.364	-1410.521	27.075	774.301	-1412.517	16.311	376.183	-1276.443	-81.423	822.004	-1252.008	-89.868	347.996
52	3.2	-1296.664	1375.71	537.673	-1296.664	1375.71	537.673	-1280.53	1300.95	703.989	-1299.111	1293.404	362.744	-1332.761	1022.006	772.549	-1354.621	1016.101	316.66	-1239.8	797.386	787.168	-1245.94	801.715	308.73	-1299.86	819.469	566.009	-1297.986	824.378	651.103	-1301.939	814.025	471.644	-1337.78	417.317	719.336	-1341.978	404.081	420.153	-1410.848	27.028	774.482	-1411.668	16.045	376.007	-1275.672	-80.518	820.327	-1249.725	-88.24	350.867
53	3.248	-1298.32	1378.561	537.168	-1298.32	1378.561	537.168	-1281.872	1302.638	703.636	-1299.48	1296.499	361.539	-1332.098	1022.908	774.005	-1352.497	1017.773	316.036	-1237.792	797.987	786.816	-1242.338	803.334	309.257	-1298.589	820.925	566.136	-1296.971	826.091	651.462	-1300.384	815.196	471.513	-1337.954	417.893	719.368	-1342.584	404.3	419.808	-1411.088	26.435	774.442	-1413.387	15.361	375.244	-1274.608	-79.704	821.663	-1250.159	-87.25	347.404
54	3.321	-1296.635	1377.807	537.395	-1296.635	1377.807	537.395	-1281.583	1302.277	703.922	-1297.293	1297.213	361.466	-1331.638	1022.675	773.883	-1346.112	1018.485	312.918	-1238.459	797.552	787.427	-1234.559	805.086	303.801	-1299.154	820.556	565.128	-1297.171	825.416	650.392	-1301.352	815.168	470.574	-1335.63	417.598	719.881	-1342.185	404.362	419.916	-1412.049	27.076	774.642	-1411.681	15.45	376.07	-1276.907	-80.591	821.677	-1249.054	-87.254	346.282
